<svg width="24" height="24" viewBox="0 0 24 24" fill="none" xmlns="http://www.w3.org/2000/svg">
<path fill-rule="evenodd" clip-rule="evenodd" d="M11.2837 1.0791C11.705 0.751425 12.295 0.751425 12.7163 1.0791L21.7163 8.0791C22.0005 8.30013 22.1667 8.63999 22.1667 9.00001V20C22.1667 20.8399 21.833 21.6453 21.2392 22.2392C20.6453 22.833 19.8399 23.1667 19 23.1667H5C4.16015 23.1667 3.3547 22.833 2.76083 22.2392C2.16697 21.6453 1.83334 20.8399 1.83334 20V9.00001C1.83334 8.63999 1.99955 8.30013 2.28374 8.0791L11.2837 1.0791ZM4.16667 9.57061V20C4.16667 20.221 4.25447 20.433 4.41075 20.5893C4.56703 20.7455 4.77899 20.8333 5 20.8333H19C19.221 20.8333 19.433 20.7455 19.5893 20.5893C19.7455 20.433 19.8333 20.221 19.8333 20V9.57061L12 3.47802L4.16667 9.57061Z" fill="#006699"/>
<path fill-rule="evenodd" clip-rule="evenodd" d="M7.83334 12C7.83334 11.3557 8.35567 10.8333 9 10.8333H15C15.6443 10.8333 16.1667 11.3557 16.1667 12V22C16.1667 22.6443 15.6443 23.1667 15 23.1667C14.3557 23.1667 13.8333 22.6443 13.8333 22V13.1667H10.1667V22C10.1667 22.6443 9.64433 23.1667 9 23.1667C8.35567 23.1667 7.83334 22.6443 7.83334 22V12Z" fill="#006699"/>
</svg>
